# AST/ASF file generated using VICON BodyLanguage
# -----------------------------------------------
:version 1.10
:name VICON
:units
  mass 1.0
  length 0.45
  angle deg
:documentation
   .ast/.asf automatically generated from VICON data using
   VICON BodyBuilder and BodyLanguage model FoxedUp or BRILLIANT.MOD
:root
   order TX TY TZ RX RY RZ
   axis XYZ
   position 0 0 0  
   orientation 0 0 0 
:bonedata
  begin
     id 1 
     name lhipjoint
     direction 0.570549 -0.739093 0.358072 
     length 2.41801 
     axis 0 0 0  XYZ
  end
  begin
     id 2 
     name lfemur
     direction 0.34202 -0.939693 0  
     length 7.44434  
     axis 0 0 20  XYZ
    dof rx ry rz
    limits (-160.0 20.0)
           (-70.0 70.0)
           (-60.0 70.0)
  end
  begin
     id 3 
     name ltibia
     direction 0.34202 -0.939693 0   
     length 7.60047   
     axis 0 0 20   XYZ
    dof rx
    limits (-10.0 170.0)
  end
  begin
     id 4 
     name lfoot
     direction 0.0909041 -0.249757 0.964032   
     length 2.03437   
     axis -90 7.62852e-016 20   XYZ
    dof rx rz
    limits (-45.0 90.0)
           (-70.0 20.0)
  end
  begin
     id 5 
     name ltoes
     direction 1.53547e-011 -4.2174e-011 1   
     length 1.02054   
     axis -90 7.62852e-016 20   XYZ
    dof rx
    limits (-90.0 20.0)
  end
  begin
     id 6 
     name rhipjoint
     direction -0.558096 -0.746754 0.361784   
     length 2.3932  
     axis 0 0 0  XYZ 
  end
  begin
     id 7 
     name rfemur
     direction -0.34202 -0.939693 0   
     length 7.3886   
     axis 0 0 -20   XYZ
    dof rx ry rz
    limits (-160.0 20.0)
           (-70.0 70.0)
           (-70.0 60.0)
  end
  begin
     id 8 
     name rtibia
     direction -0.34202 -0.939693 0   
     length 7.4839   
     axis 0 0 -20   XYZ
    dof rx
    limits (-10.0 170.0)
 end
 begin
     id 9 
     name rfoot
     direction -0.114619 -0.314914 0.942174   
     length 2.25127  
     axis -90 -7.62852e-016 -20   XYZ
    dof rx rz
    limits (-45.0 90.0)
           (-20.0 70.0)
  end
  begin
     id 10 
     name rtoes
     direction -1.53518e-011 -4.21881e-011 1   
     length 1.11821   
     axis -90 -7.62852e-016 -20   XYZ
    dof rx
    limits (-90.0 20.0)
  end
  begin
     id 11 
     name lowerback
     direction -0.00902269 0.996426 -0.0839821   
     length 2.25052   
     axis 0 0 0   XYZ
    dof rx ry rz
    limits (-20.0 45.0)
           (-30.0 30.0)
           (-30.0 30.0)
  end
  begin
     id 12 
     name upperback
     direction 0.0370973 0.999169 -0.0168941   
     length 2.24876   
     axis 0 0 0   XYZ
    dof rx ry rz
    limits (-20.0 45.0)
           (-30.0 30.0)
           (-30.0 30.0)
  end
  begin
     id 13 
     name thorax
     direction 0.0402726 0.998931 0.0227027   
     length 2.26408   
     axis 0 0 0   XYZ
    dof rx ry rz
    limits (-20.0 45.0)
           (-30.0 30.0)
           (-30.0 30.0)
  end
  begin
     id 14 
     name lowerneck
     direction -0.0733697 0.98508 0.155675   
     length 1.58204   
     axis 0 0 0   XYZ
    dof rx ry rz
    limits (-20.0 45.0)
           (-30.0 30.0)
           (-30.0 30.0)
  end
  begin
     id 15 
     name upperneck
     direction 0.0426554 0.993501 -0.105526   
     length 1.61222   
     axis 0 0 0   XYZ
    dof rx ry rz
    limits (-20.0 45.0)
           (-30.0 30.0)
           (-30.0 30.0)
  end
  begin
     id 16
     name head
     direction 0.020792 0.998384 -0.0528868  
     length 1.61527  
     axis 0 0 0   XYZ
    dof rx ry rz
    limits (-20.0 45.0)
           (-30.0 30.0)
           (-30.0 30.0)
  end
  begin
     id 17 
     name lclavicle
     direction 0.967109 0.155462 -0.201325  
     length 3.59357  
     axis 0 0 0   XYZ
    dof ry rz
    limits (-20.0 10.0)
           (0.0 20.0)
  end
  begin
     id 18 
     name lhumerus
     direction 1 -4.48968e-011 2.38195e-027   
     length 5.38154   
     axis 180 -30 -90   XYZ
    dof rx ry rz
    limits (-60.0 90.0)
           (-90.0 90.0)
           (-90.0 90.0)
  end
  begin
     id 19
     name lradius
     direction 1 -4.48961e-011 4.85371e-027   
     length 3.33312   
     axis 180 -30 -90   XYZ
    dof rx
    limits (-10.0 170.0)
  end
  begin
     id 20
     name lwrist
     direction 1 -4.48961e-011 4.76515e-027   
     length 1.66656   
     axis -3.27502e-015 90 90   XYZ
    dof ry
    limits (-180.0 0.0)
 end
  begin
     id 21 
     name lhand
     direction 1 -4.48951e-011 9.53074e-027   
     length 0.710789   
     axis -6.08098e-015 90 90   XYZ
    dof rx rz
    limits (-90.0 90.0)
           (-45.0 45.0)
  end
  begin
     id 22 
     name lfingers
     direction 1 -4.48953e-011 1.90613e-026   
     length 0.573057   
     axis -1.21619e-014 90 90   XYZ
    dof rx
    limits (0.0 90.0)
  end
  begin
     id 23
     name lthumb
     direction 0.707107 -6.34973e-011 0.707107   
     length 0.822798   
     axis -90 45 -9.86923e-015   XYZ
    dof rx rz
    limits (-45.0 45.0)
           (-45.0 45.0)
  end
  begin
     id 24 
     name rclavicle
     direction -0.9585 0.265289 -0.104398   
     length 3.42039  
     axis 0 0 0   XYZ 
    dof ry rz
    limits (-10.0 20.0)
           (-20.0 0.0)
  end
  begin
     id 25 
     name rhumerus
     direction -1 -4.48977e-011 2.21478e-027  
     length 5.16954   
     axis 180 30 90   XYZ
    dof rx ry rz
    limits (-90.0 60.0)
           (-90.0 90.0)
           (-90.0 90.0)
  end
  begin
     id 26 
     name rradius
     direction -1 -4.48967e-011 5.63677e-027   
     length 3.38287   
     axis 180 30 90   XYZ
    dof rx
    limits (-10.0 170.0)
  end
  begin
     id 27 
     name rwrist
     direction -1 -4.48967e-011 4.76501e-027   
     length 1.69144   
     axis -3.27502e-015 -90 -90   XYZ
    dof ry
    limits (-180.0 0.0)
  end
  begin
     id 28
     name rhand
     direction -1 -4.48902e-011 9.53292e-027   
     length 0.817967   
     axis -6.08098e-015 -90 -90   XYZ
    dof rx rz
    limits (-90.0 90.0)
           (-45.0 45.0)
  end
  begin
     id 29
     name rfingers
     direction -1 -4.49012e-011 1.90561e-026   
     length 0.659466   
     axis -1.21619e-014 -90 -90   XYZ
    dof rx
    limits (0.0 90.0)
  end
  begin
     id 30
     name rthumb
     direction -0.707107 -6.34944e-011 0.707107   
     length 0.946865   
     axis -90 -45 9.86923e-015   XYZ
    dof rx rz
    limits (-45.0 45.0)
           (-45.0 45.0)
  end
:hierarchy
  begin
    root lhipjoint rhipjoint lowerback
    lhipjoint lfemur
    lfemur ltibia
    ltibia lfoot
    lfoot ltoes
    rhipjoint rfemur
    rfemur rtibia
    rtibia rfoot
    rfoot rtoes
    lowerback upperback
    upperback thorax
    thorax lowerneck lclavicle rclavicle
    lowerneck upperneck
    upperneck head
    lclavicle lhumerus
    lhumerus lradius
    lradius lwrist
    lwrist lhand lthumb
    lhand lfingers
    rclavicle rhumerus
    rhumerus rradius
    rradius rwrist
    rwrist rhand rthumb
    rhand rfingers
  end

#!OML:ASF F:\twosubjects\two\wednesday\Session 1\Justin1.ASF
:FULLY-SPECIFIED
:DEGREES
78
root -3.56023 17.9737 13.9699 -171.461 -2.99214 -183.744
lowerback 5.25198 -2.28827 -7.49415
upperback -0.95497 -3.47683 2.16221
thorax -3.36716 -1.56205 6.74611
lowerneck -17.5151 -2.8271 -12.1009
upperneck 13.513 -0.990368 2.07869
head 7.11431 -0.86447 2.52341
rclavicle 3.51849e-014 -9.14409e-015
rhumerus -50.8397 -48.8278 -30.9288
rradius 69.7829
rwrist -41.6608
rhand -32.6091 28.4249
rfingers 7.12502
rthumb -5.83681 -1.47466
lclavicle 3.51849e-014 -9.14409e-015
lhumerus -29.9617 10.3507 78.3593
lradius 41.6744
lwrist -4.88538
lhand -5.57604 34.0808
lfingers 7.12502
lthumb 20.2399 63.0463
rfemur -27.8446 4.23053 11.9711
rtibia 65.2698
rfoot -6.49342 -5.61328
rtoes 4.75961
lfemur -14.6784 0.694688 -29.6507
ltibia 22.3006
lfoot -11.1915 -12.3941
ltoes 16.0419
79
root -3.58282 17.9525 13.8515 -171.469 -3.51551 -183.959
lowerback 5.48597 -2.35652 -7.85467
upperback -1.0556 -3.6105 2.24843
thorax -3.55641 -1.60787 7.06936
lowerneck -17.3818 -2.85407 -12.1818
upperneck 13.2957 -0.993697 1.91865
head 7.02198 -0.874283 2.48175
rclavicle -5.397e-014 -8.74653e-015
rhumerus -50.4533 -49.2362 -29.899
rradius 71.0347
rwrist -41.799
rhand -33.5969 28.6045
rfingers 7.12502
rthumb -6.79047 -1.2666
lclavicle -5.397e-014 -8.74653e-015
lhumerus -29.9936 10.2631 78.3694
lradius 42.518
lwrist -4.56697
lhand -4.56774 35.171
lfingers 7.12502
lthumb 21.2087 64.0308
rfemur -28.7949 4.49482 11.8356
rtibia 64.6861
rfoot -7.40535 -5.42393
rtoes 4.17962
lfemur -14.3945 0.392355 -29.8954
ltibia 22.7433
lfoot -11.7172 -12.6672
ltoes 16.1145
80
root -3.60086 17.9205 13.7375 -171.368 -3.93495 -184.068
lowerback 5.61171 -2.46248 -8.05078
upperback -1.19608 -3.7785 2.28493
thorax -3.73145 -1.67311 7.24424
lowerneck -17.186 -2.78171 -12.3166
upperneck 13.0258 -0.905598 1.9744
head 6.89536 -0.824004 2.53004
rclavicle -2.26615e-014 2.62396e-014
rhumerus -49.8679 -49.5669 -29.1661
rradius 72.1928
rwrist -41.918
rhand -34.7245 29.364
rfingers 7.12502
rthumb -7.87889 -0.469143
lclavicle -2.26615e-014 2.62396e-014
lhumerus -30.0772 10.1279 78.2392
lradius 43.2838
lwrist -3.99277
lhand -3.81555 36.2603
lfingers 7.12502
lthumb 21.9311 65.0373
rfemur -29.8001 4.7364 11.8046
rtibia 63.9286
rfoot -8.22583 -5.27414
rtoes 2.25436
lfemur -14.2151 0.192411 -30.0297
ltibia 23.1164
lfoot -12.3058 -12.8978
ltoes 16.4563
81
root -3.61605 17.8944 13.6255 -171.201 -4.20171 -183.787
lowerback 5.41641 -2.43944 -7.86297
upperback -1.15435 -3.71597 2.3573
thorax -3.59464 -1.65444 7.19621
lowerneck -17.5615 -2.84764 -12.7413
upperneck 13.1253 -0.942354 2.53837
head 6.99666 -0.820226 2.77911
rclavicle 3.27995e-015 -1.74931e-014
rhumerus -49.4013 -50.2896 -28.303
rradius 73.33
rwrist -41.9114
rhand -35.4847 30.1051
rfingers 7.12502
rthumb -8.61256 0.300807
lclavicle 3.27995e-015 -1.74931e-014
lhumerus -29.6485 9.88153 78.2138
lradius 43.8685
lwrist -3.66637
lhand -3.67855 36.5847
lfingers 7.12502
lthumb 22.0626 65.3461
rfemur -30.9142 5.17296 12.1659
rtibia 63.054
rfoot -8.80647 -5.1111
rtoes 0.299839
lfemur -14.1246 -0.0724424 -29.7325
ltibia 23.4226
lfoot -12.8134 -12.877
ltoes 16.512
82
root -3.63487 17.88 13.5086 -171.137 -4.80468 -183.864
lowerback 5.47287 -2.41121 -7.81494
upperback -1.07067 -3.68084 2.21786
thorax -3.55655 -1.64342 7.01825
lowerneck -18.2651 -3.10636 -12.7749
upperneck 13.4345 -1.21198 2.70853
head 7.23787 -0.947726 2.81039
rclavicle 2.76311e-014 2.42517e-014
rhumerus -49.4165 -51.2376 -27.1421
rradius 74.5949
rwrist -42.0836
rhand -35.8377 30.6905
rfingers 7.12502
rthumb -8.95318 0.900503
lclavicle 2.76311e-014 2.42517e-014
lhumerus -29.1957 9.15509 78.1186
lradius 44.5829
lwrist -3.29145
lhand -3.85614 36.1797
lfingers 7.12502
lthumb 21.8921 64.9612
rfemur -31.7561 5.25061 12.1559
rtibia 62.0763
rfoot -9.34591 -4.91852
rtoes 0.133395
lfemur -13.8402 -0.298386 -29.7879
ltibia 23.7059
lfoot -12.9293 -13.3639
ltoes 17.5404
83
root -3.65071 17.8595 13.382 -171.183 -5.85194 -184.295
lowerback 6.1331 -2.55596 -8.11581
upperback -1.38593 -3.9651 2.03692
thorax -4.20603 -1.73477 7.07196
lowerneck -18.1036 -3.28625 -11.6412
upperneck 13.4779 -1.4902 1.28854
head 7.23119 -1.14535 2.12755
rclavicle 2.84262e-014 -2.5842e-014
rhumerus -49.7853 -51.4455 -25.7586
rradius 75.9715
rwrist -42.2859
rhand -36.4261 31.3956
rfingers 7.12502
rthumb -9.52094 1.63069
lclavicle 2.84262e-014 -2.5842e-014
lhumerus -29.59 8.55965 77.8542
lradius 45.4287
lwrist -3.03591
lhand -3.93556 36.1377
lfingers 7.12502
lthumb 21.8158 64.9281
rfemur -32.2025 4.97553 11.888
rtibia 60.9565
rfoot -10.1806 -4.95332
rtoes 0.883767
lfemur -13.2848 -0.664596 -30.1492
ltibia 23.9077
lfoot -13.0531 -14.1803
ltoes 18.8759
84
root -3.66029 17.8383 13.2519 -171.113 -6.69093 -184.375
lowerback 6.70611 -2.6444 -8.33495
upperback -1.97142 -4.17139 2.06213
thorax -5.0999 -1.76278 7.3065
lowerneck -20.7855 -3.20933 -13.6097
upperneck 18.105 -1.06663 4.67442
head 9.25549 -0.867316 3.70361
rclavicle -6.33129e-014 2.38542e-014
rhumerus -50.296 -51.2034 -24.0664
rradius 77.2636
rwrist -42.2257
rhand -36.9759 31.8189
rfingers 7.12502
rthumb -10.0514 2.07892
lclavicle -6.33129e-014 2.38542e-014
lhumerus -30.4057 8.36931 77.6579
lradius 46.174
lwrist -3.18028
lhand -4.1685 36.5441
lfingers 7.12502
lthumb 21.5921 65.3603
rfemur -32.7707 5.06922 11.9752
rtibia 59.694
rfoot -10.9804 -4.9653
rtoes 2.71432
lfemur -12.8311 -0.964192 -30.1297
ltibia 23.9786
lfoot -13.2138 -14.6732
ltoes 19.6157
85
root -3.67046 17.8209 13.1257 -171.024 -7.21493 -184.2
lowerback 6.01297 -2.58957 -8.30433
upperback -1.49644 -4.0187 2.03384
thorax -4.23379 -1.75143 7.17623
lowerneck -18.0093 -3.42202 -10.6551
upperneck 13.3486 -1.82397 0.60826
head 7.17701 -1.31311 1.70828
rclavicle 1.61016e-014 1.82882e-014
rhumerus -49.9172 -52.7499 -23.2286
rradius 78.4365
rwrist -41.9084
rhand -37.1851 31.9495
rfingers 7.12502
rthumb -10.2532 2.21939
lclavicle 1.61016e-014 1.82882e-014
lhumerus -29.2416 8.09502 77.6858
lradius 46.555
lwrist -3.3094
lhand -4.82999 36.5719
lfingers 7.12502
lthumb 20.9568 65.4598
rfemur -33.4723 5.41812 12.2713
rtibia 58.2926
rfoot -11.2984 -4.97645
rtoes 2.14251
lfemur -12.4748 -0.942019 -29.8671
ltibia 24.04
lfoot -14.0821 -15.0597
ltoes 17.687
86
root -3.6855 17.8023 13.0041 -170.934 -7.75717 -184.205
lowerback 5.93572 -2.50844 -8.33592
upperback -1.1974 -3.89825 1.97097
thorax -3.89846 -1.71942 7.10069
lowerneck -18.1387 -3.75745 -11.2171
upperneck 12.8756 -2.27557 1.34938
head 7.08148 -1.48261 1.98623
rclavicle -1.71949e-014 1.19271e-014
rhumerus -49.3162 -54.0878 -22.5852
rradius 79.5914
rwrist -41.5137
rhand -37.728 32.3282
rfingers 7.12502
rthumb -10.7769 2.6247
lclavicle -1.71949e-014 1.19271e-014
lhumerus -28.3094 7.47789 77.7751
lradius 46.9646
lwrist -3.05358
lhand -5.11496 36.0532
lfingers 7.12502
lthumb 20.683 64.9711
rfemur -34.1067 5.57292 12.3487
rtibia 56.7545
rfoot -11.5237 -4.92523
rtoes -0.704399
lfemur -12.1909 -1.05826 -29.8041
ltibia 24.2227
lfoot -15.0013 -15.4621
ltoes 16.4976
87
root -3.70059 17.7872 12.8782 -170.88 -8.54167 -184.314
lowerback 6.15648 -2.59225 -8.38756
upperback -1.2265 -4.03733 1.8941
thorax -4.03105 -1.78005 7.07363
lowerneck -17.9997 -3.97994 -11.4791
upperneck 12.6158 -2.61998 1.79049
head 7.0028 -1.618 2.13352
rclavicle -2.65378e-014 2.66371e-014
rhumerus -48.6972 -54.7839 -21.9101
rradius 80.8012
rwrist -40.9139
rhand -38.6952 33.178
rfingers 7.12502
rthumb -11.7097 3.52529
lclavicle -2.65378e-014 2.66371e-014
lhumerus -28.1715 6.97912 77.6804
lradius 47.594
lwrist -2.75359
lhand -4.74178 35.8947
lfingers 7.12502
lthumb 21.0415 64.7732
rfemur -34.4275 5.53419 12.3243
rtibia 55.1028
rfoot -11.9063 -4.73182
rtoes 1.04479
lfemur -11.8486 -1.58408 -29.8163
ltibia 24.4703
lfoot -14.7395 -15.8912
ltoes 19.6304
88
root -3.70923 17.7703 12.7438 -170.902 -9.56994 -184.141
lowerback 6.1094 -2.83037 -8.30083
upperback -1.20016 -4.33947 1.99671
thorax -3.91968 -1.93861 7.14935
lowerneck -17.5061 -3.91389 -11.5385
upperneck 12.047 -2.86824 1.77322
head 6.74536 -1.8212 2.10304
rclavicle 4.27387e-015 -1.82882e-014
rhumerus -47.6575 -55.4993 -21.4762
rradius 81.9025
rwrist -40.1936
rhand -39.1356 33.8759
rfingers 7.12502
rthumb -12.1344 4.24779
lclavicle 4.27387e-015 -1.82882e-014
lhumerus -28.0614 7.10782 77.5407
lradius 48.1608
lwrist -3.00975
lhand -4.19878 36.2167
lfingers 7.12502
lthumb 21.5631 65.0362
rfemur -34.5195 5.41754 12.7244
rtibia 53.3636
rfoot -12.1104 -4.91842
rtoes 4.16481
lfemur -11.2056 -2.11221 -29.4479
ltibia 24.3154
lfoot -14.7713 -16.4094
ltoes 20.1469
89
root -3.73942 17.7478 12.635 -170.607 -9.56752 -183.981
lowerback 5.91868 -2.73064 -8.17013
upperback -1.32219 -4.18218 2.04361
thorax -3.97427 -1.85595 7.10685
lowerneck -17.0043 -4.01354 -11.7427
upperneck 11.5271 -3.04929 1.92307
head 6.51072 -1.88968 2.17019
rclavicle 2.04748e-014 8.34896e-015
rhumerus -46.4389 -56.2472 -21.205
rradius 82.8335
rwrist -39.7081
rhand -39.0614 34.0226
rfingers 7.12502
rthumb -12.0629 4.39026
lclavicle 2.04748e-014 8.34896e-015
lhumerus -27.9076 7.45369 77.4325
lradius 48.5263
lwrist -3.6427
lhand -3.74501 36.3695
lfingers 7.12502
lthumb 21.9988 65.1385
rfemur -35.4519 5.66123 12.8422
rtibia 51.5134
rfoot -11.8078 -4.8838
rtoes 4.27089
lfemur -11.1068 -2.07889 -29.3592
ltibia 24.2186
lfoot -15.4953 -16.3052
ltoes 17.7603
90
root -3.76302 17.784 12.5117 -170.475 -10.0447 -184.041
lowerback 6.08136 -2.74185 -8.26957
upperback -1.51527 -4.22673 2.00967
thorax -4.25846 -1.85418 7.15063
lowerneck -16.5053 -4.13067 -11.8799
upperneck 11.3167 -3.27935 2.20741
head 6.38273 -1.97467 2.26623
rclavicle 3.42904e-014 1.35174e-014
rhumerus -45.3853 -56.7406 -20.8949
rradius 83.7257
rwrist -39.2812
rhand -39.0919 33.9968
rfingers 7.12502
rthumb -12.0923 4.36622
lclavicle 3.42904e-014 1.35174e-014
lhumerus -27.9981 7.33805 77.3355
lradius 48.8269
lwrist -3.61344
lhand -3.87689 36.269
lfingers 7.12502
lthumb 21.8722 65.0528
rfemur -36.068 5.66776 12.832
rtibia 49.6607
rfoot -11.6904 -5.05882
rtoes 4.51742
lfemur -10.6699 -1.93681 -29.3475
ltibia 24.0633
lfoot -15.8311 -16.8297
ltoes 17.6525
91
root -3.7785 17.7684 12.39 -170.422 -10.673 -183.934
lowerback 6.21244 -2.82039 -8.28457
upperback -1.60471 -4.34435 2.08244
thorax -4.39953 -1.90087 7.25876
lowerneck -16.5153 -4.22645 -11.9794
upperneck 11.5294 -3.40004 2.34547
head 6.4661 -2.03064 2.31345
rclavicle 1.49089e-016 1.19271e-015
rhumerus -43.8001 -57.3961 -20.9493
rradius 84.4588
rwrist -38.5639
rhand -39.3623 34.2781
rfingers 7.12502
rthumb -12.353 4.66302
lclavicle 1.49089e-016 1.19271e-015
lhumerus -28.0428 7.08561 77.3407
lradius 49.2845
lwrist -3.11613
lhand -4.05081 36.4609
lfingers 7.12502
lthumb 21.7052 65.2641
rfemur -36.4445 5.40093 13.2384
rtibia 47.6027
rfoot -10.9029 -5.34837
rtoes 1.32223
lfemur -10.0865 -2.38214 -29.1134
ltibia 23.8229
lfoot -16.2715 -16.8466
ltoes 17.0464
92
root -3.7948 17.7581 12.2637 -170.186 -11.1833 -183.863
lowerback 6.13263 -2.83501 -8.34303
upperback -1.69229 -4.36215 2.16218
thorax -4.43383 -1.90262 7.37671
lowerneck -16.9929 -4.36144 -12.1913
upperneck 12.1014 -3.48267 2.47925
head 6.74401 -2.08313 2.37439
rclavicle -9.74045e-015 -4.37326e-015
rhumerus -42.193 -58.1353 -20.8877
rradius 85.2043
rwrist -38.0075
rhand -39.7652 35.146
rfingers 7.12502
rthumb -12.7414 5.55475
lclavicle -9.74045e-015 -4.37326e-015
lhumerus -27.9897 6.93264 77.3738
lradius 49.7806
lwrist -3.05647
lhand -3.79252 36.9924
lfingers 7.12502
lthumb 21.9532 65.7667
rfemur -36.9035 5.25666 13.4905
rtibia 45.5892
rfoot -10.0442 -5.25284
rtoes -0.383107
lfemur -9.5552 -3.23525 -28.9367
ltibia 23.3093
lfoot -16.4384 -16.5995
ltoes 17.5207
